<svg xmlns="http://www.w3.org/2000/svg" xmlns:xlink="http://www.w3.org/1999/xlink" width="600" height="600"><defs><linearGradient id="c"><stop offset="0" style="stop-color:#dd4b44;stop-opacity:1"/><stop offset=".203" style="stop-color:#de5448;stop-opacity:1"/><stop offset=".345" style="stop-color:#db3d39;stop-opacity:1"/><stop offset=".485" style="stop-color:#cc2c2e;stop-opacity:1"/><stop offset=".749" style="stop-color:#ae2826;stop-opacity:1"/><stop offset="1" style="stop-color:#8a211b;stop-opacity:1"/></linearGradient><linearGradient id="b"><stop offset="0" style="stop-color:#2277b6;stop-opacity:1"/><stop offset=".104" style="stop-color:#4086c2;stop-opacity:1"/><stop offset=".224" style="stop-color:#1b73b3;stop-opacity:1"/><stop offset=".54" style="stop-color:#124783;stop-opacity:1"/><stop offset=".784" style="stop-color:#003e73;stop-opacity:1"/><stop offset="1" style="stop-color:#002448;stop-opacity:1"/></linearGradient><linearGradient xlink:href="#c" id="e" x1="215.403" x2="325.32" y1="341.276" y2="143.602" gradientTransform="matrix(1.25 0 0 -1.25 0 520)" gradientUnits="userSpaceOnUse"/><radialGradient xlink:href="#b" id="d" cx="184.604" cy="139.948" r="300" fx="184.604" fy="139.948" gradientTransform="matrix(1.13543 1.12683 -1.01653 1.0243 98.862 -279.013)" gradientUnits="userSpaceOnUse"/><path id="a" d="m-267.374-6.853-4.849 23.83-4.848-23.83v-44.741h-25.213v14.546h-9.698v-14.546h-14.546v-9.697h14.546v-14.546h9.698v14.546h25.213v-25.213h-14.546v-9.698h14.546v-14.546h9.697v14.546h14.546v9.698h-14.546v25.213h25.213v-14.546h9.698v14.546h14.546v9.697h-14.546v14.546h-9.698v-14.546h-25.213v44.741z" style="fill:#fcef3c;fill-opacity:1;stroke:#000;stroke-width:3.80701542;stroke-miterlimit:4;stroke-dasharray:none;stroke-opacity:1;display:inline"/></defs><path d="M300-80C134.569-80 0 54.587 0 219.988 0 385.413 134.569 520 300 520s300-134.587 300-300.012C600 54.588 465.431-80 300-80" style="fill:url(#d);fill-opacity:1;fill-rule:nonzero;stroke:none" transform="translate(0 80)"/><path d="M299.59-58.469c-74.416 0-144.356 28.98-196.96 81.581-52.627 52.602-81.608 122.562-81.608 196.952 0 74.414 28.981 144.375 81.609 196.976 52.603 52.625 122.543 81.581 196.96 81.581 74.416 0 144.356-28.956 196.96-81.58 52.627-52.602 81.607-122.563 81.607-196.977 0-74.39-28.98-144.35-81.608-196.952-52.603-52.601-122.543-81.58-196.96-81.58m0 11.024c147.762 0 267.543 119.776 267.543 267.508 0 147.756-119.781 267.532-267.543 267.532-147.761 0-267.542-119.776-267.542-267.532 0-147.732 119.78-267.508 267.542-267.508" style="fill:#fff;fill-opacity:1;fill-rule:nonzero;stroke:none" transform="translate(0 80)"/><path d="M299.78 67.754c-4.716 0-9.408.261-14.028.666-1.048 58.03-15.24 107.657-39.195 149.685h106.35c-23.957-42.028-38.126-91.654-39.198-149.685-4.572-.405-9.215-.666-13.93-.666Zm-56.714 156.328c-18.788 31.17-43.054 58.053-71.416 80.961a154.034 154.034 0 0 0 47.461 46.244 71.387 71.387 0 0 1-1.095-12.43c0-42.219 36.601-76.437 81.775-76.437 45.15 0 81.773 34.218 81.773 76.437 0 4.239-.379 8.382-1.093 12.43a153.977 153.977 0 0 0 47.412-46.195c-28.386-22.908-52.653-49.816-71.465-81.01H243.066z" style="fill:url(#e);fill-opacity:1;fill-rule:nonzero;stroke:none" transform="translate(0 80)"/><path d="M257.14 360.55c59.514-8.42 105.293-59.531 105.293-121.348 0-19.812-4.725-38.5-13.069-55.073-54.009 40.538-86.833 97.65-92.224 176.42m47.226-225.57a56.73 56.73 0 0 1 .877 9.926c0 33.775-29.281 61.169-65.42 61.169-36.12 0-65.42-27.394-65.42-61.17 0-3.39.305-6.705.876-9.924a123.005 123.005 0 0 0-37.968 36.995c22.69 18.307 42.102 39.814 57.133 64.77h90.681c15.05-24.975 34.463-46.482 57.19-64.808a123.033 123.033 0 0 0-37.949-36.957m-20.555-10.21a122.174 122.174 0 0 0-43.988-8.173 122.174 122.174 0 0 0-43.988 8.172c-4.991 7.563-7.868 16.497-7.868 26.08 0 27.203 23.223 49.262 51.856 49.262 28.652 0 51.875-22.06 51.875-49.263 0-9.582-2.896-18.516-7.887-26.079M117.232 239.202c0 61.836 45.779 112.947 105.312 121.348-5.391-78.79-38.216-135.902-92.243-176.421-8.344 16.554-13.069 35.26-13.069 55.073m122.59 122.586c3.773 0 7.488-.19 11.145-.534.858-46.424 12.193-86.105 31.358-119.747h-85.08c19.184 33.642 30.519 73.323 31.357 119.747 3.696.343 7.449.534 11.22.534m0 8.82c-72.468 0-131.41-58.96-131.41-131.406 0-72.466 58.942-131.425 131.41-131.425 72.47 0 131.431 58.959 131.431 131.425 0 72.447-58.961 131.406-131.43 131.406" style="fill:#fff;fill-opacity:1;fill-rule:nonzero;stroke:none" transform="matrix(1.25 0 0 -1.25 0 600)"/><path d="m244.184 136.237-4.363 5.067-4.363-5.067-.171-.476c.857-1.734 2.343-3.867 4.134-5.315l.4-.21.4.21c1.81 1.448 3.277 3.581 4.153 5.315l-.19.476M248.363 163.753c0 5.01-6.553 20.63-8.534 20.63l-.496-.209c-2.381-1.943-8.04-15.754-8.04-20.421 0-3.734 7.545-13.583 7.545-18.936l.99-.99.991.99v.038c.038 5.353 7.544 15.164 7.544 18.898M235.569 145.28c-3.544 9.335-9.64 14.44-16.003 14.44-4.781 0-8.687-3.886-8.687-8.687 0-4.8 4.67-7.888 8.687-8.687 1.302-.258 2.796.533 3.677 1.524.714.804 1.442 2.191.876 3.106-.197.318-.773.034-1.105.21-1.214.641-2.917 1.54-2.914 2.914.002 1.37 1.547 2.826 2.914 2.895 4.546.231 7.887-2.743 10.612-8.591v-.038l.019-.038.971-.572 1.067 1.086-.114.438M259.797 159.724c-6.343 0-12.459-5.106-16.002-14.44l-.095-.438 1.067-1.105.952.59.02.039.018.019c2.705 5.867 6.062 8.846 10.611 8.61 1.364-.07 2.894-1.53 2.896-2.896.002-1.369-1.685-2.274-2.896-2.914-.337-.178-.923.114-1.124-.21-.57-.921.174-2.316.896-3.124.879-.982 2.365-1.764 3.658-1.505 4.015.804 8.687 3.886 8.687 8.687 0 4.8-3.887 8.687-8.687 8.687" style="fill:#c2a24e;fill-opacity:1;fill-rule:nonzero;stroke:none" transform="matrix(1.25 0 0 -1.25 0 600)"/><path d="m299.968 371.128 21.184 50.94a205.319 205.319 0 0 1-10.573 4.362l-21.165-50.902a146.57 146.57 0 0 0 10.554-4.4M238.94 429.22h20.5c5.01 0 9.086-4.076 9.086-9.105 0-5.01-4.076-9.087-9.087-9.087h-20.498v18.193zm0-44.633v16.687h13.965l12.04-19.05a142.293 142.293 0 0 0 14.06-3.276l-14.441 23.012c8.287 2.21 15.107 9.506 15.107 18.155 0 10.401-9.85 18.86-20.232 18.86h-31.643V384.13c3.677.285 7.373.457 11.126.457h.019zM106.122 375.208l15.012 16.479c3.39 3.714 9.163 3.981 12.859.59 3.715-3.372 3.981-9.144.59-12.84l-15.012-16.497-13.45 12.268zm33.148-30.194-12.497 11.373 15.469 17.03c7.01 7.678 7.01 20.022-.686 27.033-7.678 7.01-20.175 6.038-27.185-1.639l-22.956-25.279 40.006-36.461c2.496 2.762 5.144 5.39 7.849 7.943M348.22 391.226c8.248 1.943 23.412-13.126 26.327-23.337 2.4 1.83 7.773 5.773 7.773 5.773-6.42 18.25-31.948 36.5-44.064 25.07-7.202-6.802-3.125-17.26 3.162-23.87l6.096-6.42c6.21-6.534 11.64-13.05 6.649-17.183-5.315-4.4-20.213 6.63-29.167 25.565l-8-6.058c1.904-4.972 6.229-12.192 12.02-18.307 6.573-6.915 13.736-11.43 20.156-12.687 5.048-.99 10.058-.229 13.373 2.838 8.268 7.677 5.258 18.84-7.734 32.518l-5.373 5.658c-5.982 6.306-3.543 9.887-1.219 10.44M175.498 394.117l.953 23.565 15.507-17.793a166.48 166.48 0 0 1-16.46-5.772m3.315 35.7a174.49 174.49 0 0 1-11.602-4.115l-4.134-62.484a151.314 151.314 0 0 0 11.43 6.306l.591 14.554c7.525 3.334 15.393 6.077 23.49 8.21l9.601-11.01a143.7 143.7 0 0 0 12.86 2.171l-42.236 46.368zM132.981 113.109l-7.087-3.353 4.915-4.191 2.172 7.544zm-2.648-19.984-2.648 1.982 2.229 7.334-6.992 5.943-6.953-3.314-2.362 2.171 20.536 9.697 2.515-2.134-6.325-21.679zM150.626 104.437l-11.507-17.469-2.476 1.639 11.506 17.45 2.477-1.62zM159.648 98.696l3.563-19.508.038-.019L170.526 93l2.61-1.39-9.544-18.212L161 74.578l-3.6 19.736-.039.02-7.391-14.022-2.534 1.467 9.601 18.288 2.61-1.371zM195.19 83.496l-.972-2.8-6.82 2.38-5.85-16.782-2.78.971 5.848 16.783-6.82 2.362.971 2.8 16.422-5.714zM240.368 68.147l9.43-.152-.096-5.449c-.057-3.695-4.153-6.096-9.315-6.02-5.468.096-11.126 3.944-11.012 10.916.077 5.868 4.84 10.611 11.43 10.516 4.897-.076 7.43-2.705 8.612-3.867l-2.077-2.077c-1.01.99-2.572 2.915-6.286 2.972-5.449.095-8.669-3.41-8.726-7.715-.076-4.039 3.048-7.696 8.25-7.792 3.562-.057 6.134 1.543 6.153 3.296l.057 2.305-6.477.114.057 2.953zM272.39 80.575l.42-2.933-13.736-1.963.78-5.353 6.916 1.01.42-2.953-6.916-.971.895-6.23L275.4 63.24l.42-2.934-17.166-2.457-2.914 20.345 16.65 2.381zM283.154 80.286l1.752-5.81 8.764 2.647c2.114.648 2.99 2.115 2.419 4.02-.667 2.229-2.534 2.267-4.172 1.79l-8.763-2.647zm7.906 5.467c3.162.953 6.648.248 7.867-3.753 1.277-4.267-1.18-6.477-2.78-7.105l6.42-6.916-3.106-1.123-6.382 7.01-7.335-2.21 2.477-8.268-2.839-.8-5.905 19.679 11.583 3.486zM336.27 105.03l1.506-7.716 5.277 3.753-6.782 3.963zm18.537-7.43-2.591-2.057-6.363 3.905-7.468-5.334 1.429-7.448-2.629-1.677-4.344 22.117 2.687 1.886L354.807 97.6zM348.385 119.23l14.04-15.107-2.229-1.962-13.983 15.05 2.172 2.018zM356.537 127.284l19.793-1.372.038.057-11.62 10.44 1.98 2.19 15.28-13.735-1.772-2.21-20.004 1.372-.038-.038 11.774-10.592-2.077-2.114-15.336 13.792 1.982 2.21zM321.718 99.66l-2.63-1.353-.456-14.554-12.06 8.191-2.628-1.352 8.972-18.498 2.706 1.2-6.23 13.145.038.038 11.945-8.096.457 14.42.057.02 6.992-12.783 2.572 1.448-9.735 18.173zM122.564 126.158c-1.676 6.267-8.04 12.42-12.84 12.42l-2.877-.914-1.714-2.858c-.248-1.828.476-4.152 2-6.172l2.191-2.933c1.696-2.267 3.334-4.63 2.991-6.496l-1.257-1.83-1.334-.361c-2.972 0-8.001 5.296-10.478 12.897l-.038.133-2.172-2.038-.038-.038v-.039c.496-1.904 1.791-4.972 3.963-7.886 2.286-3.048 4.896-5.163 7.334-5.963l2.305-.38 2.744.8 2.076 3.295c.362 2.42-.914 5.639-3.829 9.506l-1.924 2.59c-1.543 2.077-1.486 3.41-1.162 4.173l1.62 1.219.323.019c3.543 0 8.535-5.868 9.83-10.401l.038-.115.095.058 2.096 1.2.076.038-.019.076zM212.906 67.284l-7.334 1.62.686 2.952 7.315-1.638-.667-2.934z" style="fill:#fff;fill-opacity:1;fill-rule:nonzero;stroke:none" transform="matrix(1.25 0 0 -1.25 0 600)"/></svg>