<svg xmlns="http://www.w3.org/2000/svg" width="182" height="200"><style>.shp1{fill:#000}.shp2{fill:#fff}</style><path d="M135.55.14c-.01.02-.35 1.04-.74 2.25-.39 1.22-.92 2.86-1.17 3.66l-.47 1.44c-6.98 0-7.8.01-7.8.07 0 .03 1.41 1.08 3.12 2.32 1.72 1.25 3.12 2.29 3.12 2.33 0 .04-.54 1.71-1.19 3.72-.66 2.01-1.18 3.67-1.16 3.69.02.02 1.44-.99 3.16-2.25 1.71-1.25 3.15-2.28 3.18-2.28.04 0 1.44 1 3.12 2.23 1.68 1.22 3.1 2.24 3.15 2.26.05.02.09 0 .09-.04 0-.03-.53-1.7-1.19-3.7-.65-2-1.18-3.65-1.18-3.67.01-.01 1.42-1.04 3.14-2.29 1.72-1.24 3.13-2.29 3.13-2.32 0-.06-.82-.07-3.91-.08l-3.91-.02c-1.83-5.68-2.39-7.34-2.41-7.35-.03 0-.06.01-.08.03Zm-88.64 1.3c-.23.71-.77 2.37-1.19 3.68l-.77 2.4c-6.42.04-7.77.07-7.78.1 0 .03 1.36 1.04 3.03 2.25 1.67 1.21 3.08 2.23 3.13 2.26.09.06.02.3-1.11 3.76-.66 2.03-1.18 3.71-1.16 3.73.03.03 1.46-.99 3.19-2.25l3.15-2.29c.36.27 1.78 1.3 3.38 2.47 1.6 1.17 2.93 2.1 2.95 2.08.02-.03-.5-1.68-1.16-3.69-.66-2-1.19-3.67-1.19-3.7 0-.04 1.39-1.08 3.1-2.31 1.71-1.23 3.12-2.27 3.12-2.31.01-.07-.55-.08-3.87-.08h-3.89C47.92 1.62 47.42.16 47.39.16c-.04 0-.24.53-.48 1.28Z" style="fill:#fc1"/><path d="M24.43 35.28c-6.96 7.5-12.74 13.73-12.84 13.84l-.2.22c.98.76 1.6 1.27 2 1.61.4.34 1.13 1.02 1.62 1.51.48.48 1.12 1.16 1.42 1.51.29.34.74.89.99 1.22.25.33.64.88.87 1.22a21.083 21.083 0 0 1 1.19 1.98c.17.31.44.86.61 1.22.17.36.43.97.58 1.35.15.39.37 1.01.49 1.38.12.37.31 1.05.42 1.51.12.46.28 1.23.36 1.72.09.48.19 1.22.24 1.63.04.42.1 1.26.12 1.88.03.63.03 1.63 0 2.29-.02.64-.08 1.53-.12 1.97-.05.45-.14 1.21-.22 1.69-.07.49-.21 1.31-.31 1.82-.1.52-.27 1.33-.39 1.8-.11.47-.33 1.3-.48 1.84-.16.55-.43 1.44-.61 1.98-.17.54-.46 1.39-.64 1.87-.18.49-.49 1.3-.69 1.8-.2.5-.57 1.36-.81 1.92a91.828 91.828 0 0 1-2.11 4.45 114.154 114.154 0 0 1-2.23 4.11c-.22.37-.65 1.11-.97 1.64-.31.53-.84 1.39-1.17 1.92-.33.53-1.07 1.7-1.66 2.6-.59.9-1.37 2.16-1.75 2.79-.38.63-.91 1.53-1.17 2-.26.47-.79 1.48-1.17 2.23-.38.76-.86 1.75-1.06 2.19-.2.44-.51 1.17-.7 1.61-.18.45-.49 1.22-.68 1.72-.2.5-.53 1.42-.73 2.05-.21.63-.5 1.56-.65 2.06-.14.5-.36 1.33-.49 1.84-.13.52-.32 1.33-.42 1.8-.1.47-.25 1.27-.34 1.77-.08.5-.21 1.33-.28 1.84-.07.52-.17 1.33-.21 1.8-.05.47-.12 1.36-.16 1.98-.05.64-.08 1.86-.08 2.87 0 .96.02 2.1.06 2.52.03.42.1 1.3.15 1.94.06.64.15 1.53.21 1.98.05.44.18 1.31.29 1.92.1.62.28 1.58.39 2.13.12.56.34 1.53.49 2.16.16.63.39 1.52.52 1.98a77.781 77.781 0 0 0 1.25 3.9c.19.51.51 1.35.71 1.85.2.5.54 1.3.75 1.79.22.49.65 1.41.98 2.06.32.64.76 1.49.99 1.89.22.4.58 1.02.79 1.38.22.36.7 1.12 1.08 1.69.38.57 1 1.46 1.39 1.98.39.51.97 1.25 1.29 1.64.32.38.85.99 1.17 1.35.32.36.94 1.01 1.38 1.46.44.44 1.14 1.11 1.56 1.48.41.38 1.03.92 1.37 1.2.35.28.92.74 1.28 1.02.35.27 1.04.77 1.53 1.11.49.34 1.28.87 1.77 1.18.48.3 1.26.76 1.71 1.02.46.27 1.43.78 2.16 1.14.73.37 1.66.81 2.06.99.4.17 1.11.47 1.58.66.47.2 1.26.5 1.74.68.49.18 1.33.47 1.88.65.54.17 1.48.46 2.08.63.6.17 1.59.44 2.21.59.61.15 1.68.39 2.36.54.69.14 1.87.37 2.63.5.76.13 1.98.31 2.73.41.74.1 1.92.24 2.62.32.7.07 1.73.16 2.29.2.56.05 1.38.11 1.82.14.45.03 1.3.1 1.9.16a65.14 65.14 0 0 1 4.24.52c.56.09 1.46.24 2 .34.54.1 1.53.29 2.18.43.66.14 1.7.39 2.32.54.61.16 1.57.42 2.13.58.56.16 1.52.46 2.13.66.62.2 1.55.53 2.08.72.53.19 1.4.53 1.93.74.53.21 1.43.6 2 .85.57.25 1.68.78 2.47 1.17.78.4 1.88.97 2.44 1.28.56.32 1.38.79 1.82 1.06.45.26 1.17.72 1.61 1 .45.29 1.18.78 1.64 1.09.46.32 1.33.94 1.93 1.39.6.45 1.46 1.12 1.92 1.48.46.37 1.23 1.01 1.71 1.43.48.42.97.85 1.09.95l.22.19c.6-.53 1.09-.95 1.48-1.29.38-.33 1.13-.95 1.66-1.38.53-.42 1.23-.97 1.56-1.22.33-.25.96-.71 1.41-1.02.44-.32 1.19-.83 1.66-1.15.47-.31 1.16-.76 1.53-.99l1.41-.85c.4-.23 1.09-.62 1.53-.87.45-.24 1.4-.74 2.13-1.11.73-.36 1.68-.82 2.11-1.01.43-.19 1.21-.53 1.74-.75.53-.22 1.35-.55 1.82-.73.47-.18 1.22-.45 1.67-.6.44-.16 1.25-.43 1.79-.6.54-.17 1.4-.42 1.9-.56.5-.15 1.28-.36 1.74-.47.46-.11 1.19-.29 1.64-.39.44-.1 1.17-.26 1.61-.34.44-.09 1.26-.25 1.82-.34.56-.1 1.51-.25 2.11-.34.6-.08 1.5-.2 2-.26.5-.05 1.31-.14 1.79-.18.49-.04 1.21-.1 1.61-.13.4-.03 1.21-.09 1.8-.14a88.027 88.027 0 0 0 4.16-.41c.58-.08 1.66-.23 2.39-.34.73-.11 1.75-.29 2.26-.38.52-.1 1.34-.27 1.82-.37.49-.1 1.35-.3 1.93-.44.57-.14 1.56-.41 2.21-.59.64-.19 1.52-.45 1.95-.59.42-.13 1.24-.41 1.82-.62.57-.21 1.39-.52 1.82-.69.42-.17 1.06-.43 1.4-.58a57.972 57.972 0 0 0 3.25-1.56c.5-.27 1.24-.67 1.64-.9.4-.23 1.1-.66 1.56-.95.46-.29 1.11-.73 1.45-.96.35-.24.85-.6 1.12-.8.27-.2.88-.67 1.35-1.05.48-.38 1.2-.99 1.62-1.35.41-.37 1.2-1.12 1.74-1.66.54-.55 1.28-1.32 1.64-1.72.35-.41.93-1.09 1.28-1.51.34-.43.9-1.16 1.24-1.61.33-.46.87-1.23 1.19-1.72.33-.49.8-1.23 1.06-1.66.25-.43.68-1.18.95-1.67.27-.48.73-1.4 1.04-2.03.31-.63.77-1.63 1.03-2.23.25-.6.64-1.58.86-2.16.22-.59.57-1.55.76-2.13.2-.59.51-1.61.7-2.27.19-.66.46-1.66.6-2.23.14-.58.36-1.55.49-2.16.13-.62.3-1.54.39-2.06.08-.51.2-1.28.26-1.71.06-.43.15-1.25.21-1.82.05-.58.13-1.38.16-1.8.03-.41.07-1.67.09-2.78.01-1.29 0-2.35-.04-2.91-.03-.49-.08-1.18-.11-1.54-.03-.36-.1-1.07-.16-1.59-.05-.51-.17-1.4-.26-1.97-.08-.57-.26-1.56-.38-2.19a60.398 60.398 0 0 0-1.02-4.18c-.15-.5-.45-1.46-.67-2.14-.22-.67-.62-1.76-.87-2.42-.26-.65-.67-1.66-.92-2.23-.25-.57-.79-1.72-1.2-2.55-.41-.83-1.01-1.98-1.33-2.55-.32-.57-.86-1.51-1.21-2.08-.34-.57-1.08-1.74-1.64-2.6-.56-.86-1.27-1.97-1.58-2.47-.32-.5-.85-1.37-1.18-1.93-.34-.55-.89-1.5-1.24-2.1-.34-.6-.87-1.55-1.17-2.11-.3-.56-.89-1.7-1.31-2.55-.42-.84-1-2.04-1.28-2.65-.27-.62-.68-1.54-.89-2.06-.22-.51-.55-1.34-.74-1.84-.2-.5-.57-1.57-.84-2.37s-.62-1.96-.79-2.57c-.17-.62-.42-1.6-.55-2.19-.13-.59-.31-1.47-.4-1.98a47.363 47.363 0 0 1-.42-3.25c-.05-.43-.07-1.47-.07-2.6 0-1.44.02-2.07.09-2.73.05-.47.17-1.27.25-1.77.09-.5.25-1.29.36-1.76.12-.48.36-1.31.54-1.85.19-.54.49-1.35.68-1.8.2-.44.45-1 .57-1.24.13-.25.41-.76.63-1.15.22-.38.58-.97.8-1.3.21-.33.59-.87.84-1.2.25-.32.61-.78.8-1.01.19-.23.66-.75 1.03-1.16.38-.41 1.02-1.05 1.42-1.41.4-.37.96-.87 1.24-1.11l1.08-.86c.5-.38.55-.44.5-.52-.04-.05-5.81-6.28-12.83-13.85-7.02-7.56-12.78-13.76-12.8-13.77-.03-.01-.69.33-1.47.75-.77.42-1.95 1.04-2.61 1.37-.66.33-1.62.8-2.13 1.04-.51.24-1.42.64-2 .9-.59.26-1.66.71-2.39 1-.73.29-1.86.73-2.5.96-.64.24-1.68.6-2.31.82-.63.21-1.59.52-2.14.69-.54.17-1.35.41-1.79.54-.44.13-1.29.36-1.87.52-.59.16-1.59.42-2.24.58-.64.15-1.69.4-2.34.54-.64.14-1.71.36-2.36.49-.66.13-1.46.29-1.77.34-.32.06-1.14.2-1.82.32a152.047 152.047 0 0 1-5.51.78c-.75.08-1.82.2-2.4.26-.57.05-1.46.14-1.97.18-.52.04-1.25.1-1.64.13-.39.03-1.3.09-2.03.13-.73.04-1.94.11-2.7.14-.91.05-2.96.07-6.01.07-3.64 0-5-.02-6.37-.09-.96-.05-2.29-.13-2.96-.17-.67-.04-1.53-.1-1.9-.13-.37-.03-1.19-.1-1.82-.16-.63-.06-1.58-.15-2.11-.21-.53-.05-1.43-.16-2.01-.23-.58-.07-1.55-.2-2.16-.29-.61-.08-1.62-.24-2.25-.34-.63-.1-1.6-.26-2.16-.36-.55-.1-1.53-.29-2.17-.42-.63-.12-1.69-.34-2.34-.49-.65-.14-1.82-.42-2.61-.62-.79-.2-1.91-.49-2.5-.65-.58-.16-1.6-.46-2.26-.66-.66-.2-1.78-.56-2.49-.79a102.485 102.485 0 0 1-4.35-1.57c-.64-.25-1.81-.73-2.6-1.06a91.998 91.998 0 0 1-4.73-2.2c-.73-.36-1.91-.99-2.64-1.39-.72-.4-1.33-.73-1.36-.73-.02 0-5.74 6.14-12.7 13.64Z" class="shp1"/><path d="M27.09 37.07c-5.84 6.32-10.72 11.59-10.83 11.71l-.22.23c.69.61 1.2 1.1 1.58 1.47.38.37.97.99 1.31 1.37.34.38.86.98 1.15 1.35.29.36.75.99 1.03 1.39.28.4.71 1.07.96 1.48.25.42.65 1.14.89 1.62.24.47.59 1.23.78 1.69.19.45.46 1.17.59 1.58.14.42.35 1.11.47 1.54.11.43.29 1.19.39 1.69.1.5.23 1.27.29 1.71.05.45.13 1.11.17 1.49.03.39.06 1.42.06 2.44 0 1.01-.03 2.1-.07 2.55-.03.43-.12 1.24-.19 1.79-.07.56-.2 1.43-.28 1.93-.09.5-.24 1.27-.34 1.72-.1.44-.26 1.14-.36 1.56-.11.41-.32 1.19-.48 1.74-.16.54-.42 1.38-.57 1.87-.16.49-.45 1.32-.65 1.85-.19.53-.51 1.37-.71 1.87-.2.5-.54 1.32-.76 1.82-.21.5-.61 1.39-.88 1.98-.27.58-.8 1.67-1.17 2.42-.38.74-.9 1.76-1.17 2.26-.27.5-.76 1.4-1.1 2-.34.6-1.04 1.8-1.55 2.65-.52.86-1.3 2.14-1.75 2.84-.45.7-1.17 1.81-1.59 2.47-.42.66-1.02 1.61-1.31 2.11-.3.5-.64 1.07-.75 1.27-.11.2-.2.39-.2.43 0 .04.11-.01.27-.11.15-.09 7.97-5.15 17.38-11.24s20.85-13.5 25.43-16.46l17.06-11.03c4.8-3.11 12.48-8.08 17.05-11.04 4.58-2.96 15.62-10.11 24.55-15.88 8.92-5.78 16.38-10.61 16.58-10.74.2-.12.34-.24.32-.25-.03-.01-.56.14-1.17.32-.62.18-1.64.48-2.27.65-.63.17-1.65.44-2.28.6-.63.16-1.63.39-2.21.53-.59.13-1.56.34-2.16.46-.6.13-1.54.31-2.08.41-.55.11-1.62.29-2.39.42-.78.13-1.9.3-2.5.39-.6.09-1.65.23-2.34.31-.69.09-1.8.22-2.47.29-.67.07-1.89.19-2.7.26-.82.07-2.04.16-2.71.21-.67.04-1.89.11-2.7.16a143.142 143.142 0 0 1-8.84.16c-1.73-.01-3.71-.05-4.4-.08-.68-.03-1.7-.08-2.26-.11-.56-.03-1.53-.09-2.16-.13-.63-.04-1.69-.13-2.36-.18-.67-.06-1.34-.12-1.48-.13-.15-.02-.92-.1-1.72-.18-.8-.09-1.83-.21-2.29-.27-.46-.05-1.4-.18-2.1-.28-.7-.1-1.84-.28-2.53-.39-.68-.12-1.63-.28-2.1-.37-.47-.09-1.33-.25-1.9-.36-.57-.12-1.57-.33-2.21-.47-.64-.14-1.74-.4-2.44-.57a96.56 96.56 0 0 1-4.29-1.15c-.49-.14-1.23-.37-1.64-.49-.42-.13-1.31-.42-1.98-.64-.67-.23-1.64-.56-2.16-.75-.51-.19-1.34-.49-1.84-.69-.5-.19-1.44-.56-2.08-.83-.65-.26-1.59-.67-2.11-.9-.51-.23-1.3-.58-1.74-.79-.44-.21-1.54-.75-2.44-1.2-.9-.45-1.66-.83-1.68-.83-.02 0-4.81 5.17-10.65 11.48Z" class="shp2"/><path d="M47.94 35.87c-.12.01-.56.06-.96.1-.4.05-1.08.15-1.51.24-.43.08-1.06.23-1.41.33-.35.1-.93.29-1.28.41-.35.13-.88.34-1.18.47-.3.14-.78.37-1.07.52-.28.15-.74.41-1.01.58-.27.16-.7.44-.96.62s-.73.53-1.04.78c-.32.25-.9.75-1.29 1.11-.4.36-.99.95-1.31 1.31-.33.36-.8.91-1.05 1.22-.24.32-.67.9-.93 1.3a17.793 17.793 0 0 0-2.12 4.36c-.11.31-.27.88-.37 1.27-.1.4-.24 1.06-.31 1.47-.07.42-.16 1.04-.2 1.38-.04.39-.07 1.24-.06 2.26 0 1.27.02 1.81.09 2.37.05.4.14.99.2 1.3.05.32.18.89.28 1.28.09.38.28 1 .4 1.37.13.38.38 1.03.56 1.46.19.43.52 1.12.76 1.54.23.41.6 1.03.83 1.37.23.35.62.89.87 1.2.24.31.67.83.96 1.14.28.32.87.9 1.31 1.3.45.41 1.07.94 1.38 1.19.31.25.93.7 1.38 1 .44.29 1.11.7 1.48.9.37.2.98.5 1.35.66.37.16 1.09.43 1.59.6.5.16 1.22.37 1.61.46.38.09 1 .21 1.38.26.37.06.95.13 1.3.17.34.03 1.22.06 1.95.06.86 0 1.59-.03 2.1-.08.43-.05 1.06-.14 1.41-.2.34-.06.9-.17 1.24-.25a21.947 21.947 0 0 0 2.73-.89c.33-.14.87-.38 1.19-.54.32-.16.89-.48 1.27-.7.38-.23.96-.61 1.3-.85a22.032 22.032 0 0 0 2.66-2.26c.4-.4.97-1.02 1.27-1.39.31-.37.73-.9.94-1.2.2-.29.54-.79.74-1.11.2-.32.5-.85.67-1.17.17-.32.41-.83.55-1.13a22 22 0 0 0 .46-1.17c.13-.34.3-.87.39-1.17.08-.3.21-.81.28-1.12.07-.31.18-.88.24-1.25.05-.37.13-.96.17-1.3.03-.34.06-1.2.06-1.9s-.03-1.55-.06-1.9c-.04-.34-.1-.87-.14-1.17-.05-.3-.13-.78-.19-1.06-.06-.29-.16-.75-.23-1.02s-.24-.83-.38-1.25a17.442 17.442 0 0 0-1.05-2.49c-.17-.33-.5-.93-.75-1.33s-.68-1.03-.96-1.4c-.28-.37-.77-.97-1.08-1.33-.32-.36-.81-.87-1.09-1.15-.28-.27-.73-.69-1-.93a24.057 24.057 0 0 0-2.21-1.67c-.29-.19-.73-.46-.99-.61-.26-.14-.79-.41-1.17-.6-.39-.18-.93-.42-1.2-.53-.27-.1-.7-.26-.96-.34-.26-.09-.73-.22-1.04-.31-.31-.08-.82-.2-1.12-.26-.3-.06-.9-.15-1.32-.21-.62-.08-1.13-.11-2.45-.12-.91-.01-1.77-.01-1.9 0Z" class="shp1"/><path d="M133.87 36.6c-.17.04-.43.13-.57.19-.14.06-4.03 2.6-8.63 5.65-4.6 3.04-9.58 6.34-11.05 7.31-2.56 1.7-2.69 1.8-3 2.16-.17.22-.42.56-.56.76-.14.2-.38.62-.53.93-.15.32-.34.81-.42 1.09l-.14.52-.03 25.13c.17.8.28 1.21.36 1.43.07.21.22.53.32.69.1.17.31.42.46.57.17.15.41.3.58.36.19.07.41.1.7.1.23 0 .57-.03.75-.08.19-.05.53-.18.76-.28.23-.1 2.66-1.61 5.64-3.49 2.87-1.82 7.21-4.58 9.64-6.12 2.44-1.54 4.55-2.9 4.71-3.03.15-.14.46-.45.69-.71.23-.26.58-.73.79-1.04.21-.32.53-.87.69-1.22.17-.36.4-.91.5-1.23.11-.31.25-.83.32-1.14l.13-.57c0-10.1-.01-11.26-.07-11.26-.03 0-2.22 1.32-4.87 2.93l-4.81 2.93-.03 7.22c-4.25 2.84-5.59 3.7-5.72 3.74-.12.05-.33.08-.45.08-.17 0-.26-.03-.38-.14-.09-.08-.2-.21-.24-.29-.04-.08-.09-.25-.12-.38-.03-.12-.08-.46-.11-.74-.02-.28-.09-3.39-.15-6.93-.1-5.86-.11-6.45-.03-6.77a2.868 2.868 0 0 1 .53-1.13c.08-.1 1.56-1.22 3.29-2.5s3.24-2.37 3.36-2.43c.11-.06.31-.13.43-.17.17-.04.25-.04.4.02.1.05.22.15.27.25.07.13.1.33.11.92.01.42.03.79.04.82.01.04 1.64-1.01 4.29-2.78l4.26-2.85v-7.54c-.23-.4-.39-.61-.51-.71-.13-.12-.33-.23-.49-.28a2.49 2.49 0 0 0-.53-.07c-.15 0-.4.04-.58.08Zm-85.16 1.14c-.02.03.12.22.31.44.19.21.56.65.82.96.27.32.74.91 1.05 1.33a32.648 32.648 0 0 1 2.79 4.37c.19.36.48.95.65 1.32.17.38.44 1.01.59 1.41.16.4.4 1.05.53 1.45.13.41.29.94.37 1.2.07.26.21.83.31 1.28.1.44.22 1.11.28 1.48.06.37.15.99.2 1.38.05.43.09 1.34.11 2.39.01 1.06 0 1.98-.03 2.47-.04.43-.08.9-.1 1.04-.02.22-.01.27.07.3.06.03.12.02.16-.03.03-.03.22-.35.43-.71.2-.36.52-.99.7-1.41.18-.41.42-1.03.54-1.37.12-.35.28-.91.37-1.25.08-.35.2-.92.26-1.28s.13-.95.17-1.32c.03-.42.05-1.15.03-1.9-.02-.67-.07-1.52-.12-1.88-.04-.35-.14-.96-.21-1.33-.07-.38-.22-1.05-.33-1.49-.11-.43-.31-1.13-.45-1.54-.13-.42-.39-1.13-.57-1.59-.18-.46-.47-1.16-.64-1.56-.18-.4-.58-1.21-.88-1.8-.3-.58-.6-1.16-.66-1.28-.1-.21-.11-.21-.68-.37-.31-.09-.71-.2-.88-.24-.17-.04-.56-.12-.86-.18-.3-.06-.84-.14-1.2-.19-.35-.05-1.2-.1-1.87-.11-.69-.02-1.24-.01-1.26.01Zm-2.82.32c-.06.01-.35.08-.65.15-.3.08-.77.21-1.04.29-.27.09-.76.26-1.09.39-.33.13-.94.41-1.35.61-.42.21-.98.52-1.25.68-.27.17-.71.46-.96.64-.26.17-.68.49-.95.7-.26.21-.59.49-.75.63l-.28.26c.06 2.3.11 3.31.15 3.73.05.41.12 1.02.16 1.35.05.33.14.9.22 1.27.07.38.2.96.28 1.31.09.34.24.89.34 1.22.1.33.32.92.47 1.32.16.4.44 1.03.62 1.4.18.36.47.87.63 1.14.16.26.45.69.63.95s.49.65.69.88c.19.23.63.69.97 1.02.34.33.86.78 1.16 1.01.3.23.81.58 1.14.79.33.2.87.5 1.2.67.33.16.84.4 1.14.52.3.12.84.32 1.2.44s.93.28 1.27.37c.35.09.84.2 1.11.26l.48.1c.38-.31.6-.47.73-.56.12-.08.38-.23.55-.32.18-.09.49-.22.68-.3.19-.07.53-.19.74-.25l.39-.12c.1-.75.15-1.34.18-1.78.03-.44.06-1.23.06-1.74 0-.52-.03-1.27-.06-1.67-.03-.4-.09-1.02-.13-1.38-.05-.35-.14-.96-.21-1.35-.07-.38-.22-1.07-.33-1.53-.11-.46-.32-1.19-.46-1.62-.14-.42-.39-1.11-.56-1.53-.16-.41-.5-1.18-.75-1.69-.25-.52-.63-1.25-.86-1.64-.22-.38-.62-1.04-.89-1.46-.28-.41-.73-1.07-1.02-1.45a35.329 35.329 0 0 0-1.85-2.29c-.24-.27-.65-.71-.9-.98-.37-.39-.49-.48-.6-.47-.08 0-.19.02-.25.03Zm12.45 2.29c.11.22.33.71.5 1.08.16.37.44 1.05.62 1.51.18.46.45 1.19.59 1.64.15.44.33 1.03.4 1.3.08.27.21.78.29 1.14a27.69 27.69 0 0 1 .47 2.84c.04.34.07 1.16.07 2.05 0 1.11-.03 1.65-.1 2.16-.05.37-.14.96-.21 1.3-.07.34-.21.93-.31 1.3-.11.37-.31.99-.45 1.38-.15.39-.44 1.05-.64 1.48-.21.43-.57 1.1-.81 1.48l-.42.71c.35-.07.73-.18 1.07-.29.34-.12.87-.34 1.17-.49.3-.15.74-.4.99-.56.24-.16.66-.48.93-.71.28-.22.69-.61.91-.86.23-.25.61-.71.84-1.01.23-.31.57-.81.76-1.13.19-.31.49-.88.68-1.25.19-.37.49-1.06.68-1.53.18-.47.41-1.11.5-1.41.16-.52.16-.56.1-.88-.03-.19-.15-.67-.26-1.07-.12-.4-.32-1.01-.45-1.35-.13-.34-.37-.9-.53-1.25-.16-.34-.46-.9-.66-1.25-.21-.34-.56-.88-.78-1.2-.22-.32-.61-.82-.85-1.12-.25-.3-.69-.78-.97-1.08-.29-.3-.8-.79-1.13-1.1a18.828 18.828 0 0 0-2.54-1.91c-.29-.18-.56-.32-.6-.32-.04 0 .01.15.14.4Zm-23.02 4.53c-.17.22-.53.73-.79 1.13-.26.4-.7 1.17-.96 1.71-.27.55-.57 1.21-.67 1.49-.1.27-.27.76-.36 1.09-.1.33-.25.87-.32 1.2-.07.32-.18.92-.24 1.32s-.13 1.2-.15 1.77c-.04.69-.04 1.34 0 1.92.02.49.07 1.1.1 1.36.03.25.11.75.18 1.09.07.34.15.71.18.82.05.18.13.24.87.73.45.3 1.11.71 1.47.92.36.21 1.07.59 1.59.84.51.26 1.28.6 1.71.77.43.17 1.09.4 1.46.52a19.986 19.986 0 0 0 2.73.67c.36.06.98.15 1.38.19.42.05 1.23.08 1.93.08.73 0 1.52-.03 1.98-.08.42-.04.98-.11 1.24-.16.25-.04.7-.12.98-.18.29-.06.56-.13.6-.15.07-.04.06-.05-.02-.07-.06-.02-.28-.07-.5-.12-.21-.04-.76-.19-1.22-.32-.46-.13-1.11-.34-1.46-.47-.34-.13-.9-.36-1.24-.51-.35-.16-.89-.43-1.2-.6-.31-.17-.83-.49-1.14-.69-.32-.21-.81-.57-1.1-.79-.28-.23-.75-.64-1.03-.91s-.71-.71-.94-.98c-.24-.28-.59-.72-.79-.99-.2-.27-.51-.72-.68-.99-.17-.27-.45-.76-.63-1.09-.17-.33-.45-.91-.61-1.28-.16-.37-.44-1.12-.62-1.66-.18-.55-.41-1.33-.51-1.74-.1-.42-.24-1.08-.32-1.46-.07-.39-.16-.96-.21-1.28-.04-.31-.11-.91-.15-1.32-.05-.42-.09-1.07-.11-1.45-.01-.38-.04-.7-.07-.71-.03-.01-.19.16-.36.38Zm110.24 9.39-4.07 2.56c0 6.23.02 8.04.04 8.05.02.01 1.87-1.18 4.1-2.64l4.05-2.66c.02-6.1.01-7.88-.01-7.88-.02.01-1.87 1.16-4.11 2.57Zm-78.45 2.56c-.11.2-.3.53-.41.73-.12.2-.37.59-.56.88-.19.29-.53.75-.76 1.04-.23.29-.63.74-.91 1.01-.27.28-.68.65-.9.83-.23.19-.64.48-.91.66-.27.18-.73.44-1.01.59-.29.14-.75.34-1.02.45-.27.1-.75.25-1.06.34-.32.08-.73.17-.91.2-.19.03-.39.07-.45.08-.05.01-.14.09-.19.18-.05.09-.09.17-.09.19 0 .01.27.2.61.43.34.22.81.51 1.05.64.25.14.69.34.99.46.3.12.8.29 1.12.37.31.08.84.17 1.17.2.33.03.69.05.8.05.19-.02.23-.05.48-.39.15-.2.42-.59.6-.88.17-.29.43-.73.57-.99.15-.26.38-.74.54-1.07.15-.32.38-.9.52-1.27.13-.37.33-1.03.44-1.46.11-.43.25-1.06.31-1.4.05-.34.13-.88.16-1.2.03-.31.05-.67.04-.8l-.02-.24-.2.37Zm-12.2 4.99c-.18.04-.49.12-.67.18-.19.07-.6.25-.91.41-.46.24-.66.38-1.01.71-.24.23-.48.51-.53.63a.98.98 0 0 0-.1.39c0 .1.05.25.11.36.07.1.24.24.38.32.16.08.4.14.63.17.21.02.54.01.78-.02.22-.03.62-.11.88-.19.26-.07.71-.25 1.01-.4.48-.23.61-.32 1.02-.74.27-.27.52-.57.58-.72.07-.13.12-.32.12-.42a.49.49 0 0 0-.14-.35c-.08-.08-.27-.2-.43-.26-.2-.07-.45-.11-.83-.13-.34-.01-.68.01-.89.06Zm-21.52 1.15c0 .03.15.34.34.7.19.35.5.89.69 1.19.19.3.51.77.71 1.04.2.28.58.74.84 1.04.26.3.63.72.83.92l.35.36c.85.14 1.47.22 1.93.28.46.06 1.16.13 1.56.16.4.03 1.16.05 1.69.05s1.24-.02 1.58-.05c.35-.03.87-.09 1.17-.13.3-.05.82-.14 1.15-.21.33-.08.95-.25 1.38-.39.42-.15 1.08-.41 1.45-.59.37-.18.89-.47 1.15-.64.25-.17.59-.41.75-.53l.29-.23c-.27-.16-.4-.19-.46-.18-.07.02-.53.11-1.03.21-.5.11-1.27.24-1.71.3-.57.08-1.22.12-2.21.14-1.08.02-1.61.01-2.29-.06-.49-.05-1.16-.13-1.51-.19a23.913 23.913 0 0 1-2.6-.59c-.43-.13-1.11-.35-1.51-.5-.4-.15-.97-.38-1.27-.5-.3-.13-.85-.39-1.22-.57-.37-.18-.96-.48-1.3-.68-.35-.19-.65-.35-.68-.37-.03-.01-.06 0-.07.02Zm44.82 9.32-14.32 9.29c.01 4.72.03 6.11.04 6.13.02.02.92-.5 2.01-1.16l1.97-1.19-.02 20.52-3.84 2.6c.06 4.43.09 5.74.11 5.75.02.02 4.28-2.65 9.47-5.93l9.44-5.96c.02-4.89.01-5.9-.03-5.9-.02 0-1.14.7-2.47 1.56-1.33.86-2.44 1.56-2.47 1.56-.03 0-.05-1.31-.05-3.84v-3.83l4.94-3.2c0 3.67.02 4.1.07 4.09.03-.01 1.19-.77 2.57-1.69l2.51-1.68c0-9.91-.02-12.79-.04-12.79s-1.08.72-2.35 1.6l-2.32 1.6-.02 2.34c-3.85 2.22-5.07 2.92-5.21 3l-.25.15v-6.53c5.21-3.47 6.74-4.48 6.78-4.49.03-.01.45.17.94.41.81.39.89.42.99.35.06-.04 1.43-.92 3.03-1.97l2.92-1.9c0-6.35-.02-8.19-.04-8.19s-6.48 4.18-14.36 9.3ZM56.27 65.4c-.14.09-.17.14-.14.24.02.08.04.6.06 1.17.02.68.01 1.25-.03 1.62-.03.31-.1.8-.16 1.09-.06.28-.2.8-.31 1.14-.12.35-.35.9-.52 1.24-.17.33-.3.62-.3.64.01.01.32-.08.69-.22a16.763 16.763 0 0 0 2.5-1.12c.31-.17.82-.48 1.12-.68.3-.2.73-.51.96-.68.23-.17.64-.51.91-.74.27-.24.66-.58.86-.77.34-.32.35-.34.23-.36-.07-.02-.36-.08-.65-.15-.29-.06-.73-.18-.99-.27a8.11 8.11 0 0 1-.93-.36c-.26-.12-.68-.33-.94-.47-.26-.14-.68-.4-.94-.57-.25-.17-.63-.44-.83-.59-.2-.15-.37-.28-.39-.27-.01 0-.1.05-.2.11Zm85.3 5.56-8.42 5.42c.02 86.37.04 103.7.07 103.7.03 0 .49-.05 1.03-.11.54-.05 1.43-.16 1.99-.23s1.54-.22 2.18-.32c.65-.1 1.86-.32 2.71-.49.84-.16 2.11-.44 2.81-.61.7-.18 1.73-.45 2.28-.61.56-.16 1.61-.49 2.34-.73.73-.24 1.37-.47 1.42-.5.08-.07.09-3.17.1-55.5.01-36.94 0-55.44-.03-55.44s-3.85 2.44-8.48 5.42ZM53.86 66.2c-.17.02-.27.09-.7.54-.28.29-.72.7-.98.9-.26.21-.68.52-.93.7-.26.17-.76.46-1.12.65-.36.18-.92.44-1.25.57-.33.13-.88.32-1.22.42a19.693 19.693 0 0 1-2.76.56c-.7.1-1.13.12-2.68.13-1.01.01-1.84.03-1.84.06-.01.02.09.1.2.17.12.07.44.25.71.4.27.15.76.39 1.09.53a18.67 18.67 0 0 0 2.52.89c.32.08.81.2 1.09.25.29.06.78.14 1.1.18.31.05.92.11 1.35.14.61.05 1.06.05 2.07-.01l1.29-.07c.66-.68.98-1.06 1.13-1.27.15-.22.36-.56.47-.76.11-.2.29-.58.39-.85.11-.28.25-.74.32-1.05.07-.3.15-.79.18-1.09.03-.3.05-.73.05-.96 0-.23-.01-.56-.02-.74-.02-.31-.03-.33-.14-.32-.07.01-.21.02-.32.03Zm45.06 17.72-4.07 2.56c0 6.22.01 8.03.02 8.03.02 0 1.83-1.17 4.02-2.61 2.2-1.43 4.03-2.64 4.08-2.69.09-.08.1-.3.1-3.97-.01-2.14-.02-3.89-.05-3.89-.02 0-1.86 1.16-4.1 2.57Zm8.98 8.84-8.4 5.42-.02 91.57c.3-.17.76-.43 1.22-.7.46-.26 1.15-.65 1.53-.86.39-.21 1.32-.68 2.08-1.06a64.854 64.854 0 0 1 4.66-2.09c.65-.26 1.75-.68 2.44-.92s1.82-.62 2.52-.83c.7-.22 1.51-.46 1.8-.54.28-.08.53-.15.55-.17.03-.02.04-21.45.03-47.63l-.01-47.61-8.4 5.42Zm-65.96 3.42c-.2.02-.52.08-.7.12-.31.07-1.38.72-10.64 6.46-5.66 3.51-10.5 6.54-10.76 6.73-.26.2-.63.52-.83.71-.2.2-.46.5-.59.67-.13.17-.3.44-.38.6-.08.16-.18.41-.23.57-.07.25-.08.55-.08 2.29.01 1.1.03 3.83.05 6.06l.04 4.06c.21.7.32 1 .38 1.12.06.11.2.31.32.44.13.14.32.29.43.35.12.06.35.12.52.15.21.03.44.03.71-.01.21-.03.58-.13.83-.22.24-.08.63-.25.86-.36.22-.12.65-.35.93-.53.29-.17.73-.45.99-.63s2.33-1.51 4.6-2.95c2.66-1.7 4.25-2.68 4.45-2.75.17-.06.49-.16.7-.21.24-.06.56-.1.83-.1.31 0 .51.03.65.1.12.05.27.17.35.26l.15.16v6.95c-5.98 4.01-7.08 4.71-7.28 4.78-.19.06-.36.08-.47.06-.1-.02-.22-.06-.26-.1-.03-.03-.1-.13-.15-.22-.08-.13-.09-.47-.11-2.63l-.03-2.48-9.49 5.89c.03 7.9.05 8.42.13 8.74.04.2.15.5.23.68.08.17.24.41.35.54.12.13.33.29.47.35.14.06.37.13.51.15.14.02.44.01.65-.03.22-.03.57-.12.78-.19.22-.07.53-.21.7-.3.18-.09 3.72-2.36 7.88-5.05 4.16-2.68 8.62-5.56 9.91-6.39 1.29-.83 2.58-1.66 2.88-1.85.3-.19.67-.46.83-.6.15-.14.38-.4.51-.57.13-.18.32-.49.43-.71.11-.21.26-.57.34-.8.07-.23.18-.64.23-.91.06-.27.13-.84.16-1.25.04-.54.04-2.21-.01-5.94l-.07-5.17c-.36-.47-.61-.74-.79-.9-.17-.16-.44-.37-.59-.46-.16-.09-.42-.23-.59-.3-.18-.07-.5-.17-.73-.21-.32-.07-.58-.08-1.09-.06-.51.02-.83.06-1.28.18-.33.08-.82.24-1.09.36-.36.14-1.76.97-5.04 2.99-3.3 2.02-4.62 2.81-4.8 2.85-.14.03-.32.04-.42.02-.09-.02-.24-.07-.32-.12-.09-.06-.22-.21-.29-.35-.08-.14-.15-.31-.17-.38-.02-.07-.04-1.03-.04-2.13l-.02-2.01c.22-.44.39-.7.53-.85.14-.16.44-.43.66-.6.23-.18 1.45-.99 2.71-1.8s2.4-1.54 2.55-1.62c.14-.08.4-.18.57-.22.2-.06.38-.07.52-.05.11.02.27.1.36.17.08.08.19.23.24.34.09.18.1.37.1 1.37 0 .64.02 1.16.04 1.16s2.07-1.26 4.56-2.8l4.53-2.8c.02-5.53.01-5.9-.06-6.13-.05-.15-.17-.43-.28-.62-.1-.2-.3-.48-.43-.62-.19-.19-.32-.27-.57-.34-.18-.06-.5-.11-.72-.13-.21-.01-.55-.01-.75.02Zm125 36.79c0 21.55.02 32.39.06 32.4.03 0 .28-.26.57-.59.28-.32.78-.93 1.11-1.35.34-.41.83-1.06 1.1-1.43.27-.37.74-1.05 1.04-1.51.31-.45.78-1.2 1.05-1.66.27-.46.61-1.04.76-1.3.14-.26.45-.86.69-1.33.25-.47.62-1.24.84-1.71.22-.48.55-1.22.73-1.67.19-.44.49-1.21.67-1.71.19-.51.46-1.27.61-1.7.14-.42.42-1.31.6-1.97a48.548 48.548 0 0 0 .96-3.82c.12-.53.29-1.45.39-2.03.1-.59.24-1.53.32-2.08.07-.56.16-1.4.2-1.88.05-.47.11-1.35.14-1.95.04-.66.05-1.86.03-3.07-.01-1.09-.06-2.4-.11-2.94-.04-.52-.13-1.36-.19-1.84-.05-.49-.16-1.26-.23-1.72-.07-.46-.23-1.31-.34-1.9-.12-.58-.33-1.53-.47-2.1-.14-.58-.38-1.48-.54-2.01a55.091 55.091 0 0 0-1.51-4.39c-.23-.6-.61-1.5-.83-2-.22-.5-.62-1.36-.88-1.9-.26-.55-.68-1.38-.94-1.85-.25-.47-.69-1.27-.98-1.77-.28-.5-.7-1.21-.93-1.58-.23-.38-.82-1.29-1.31-2.03-.49-.75-1.25-1.94-1.7-2.66-.45-.71-.84-1.3-.87-1.31-.03-.01-.05 11.53-.04 32.36Zm-92.78-18.36-8.38 5.42v62.6c.46.12 1.1.31 1.72.49.61.18 1.59.5 2.18.7.59.2 1.44.5 1.9.67.46.17 1.18.45 1.61.62l1.56.65c.43.19 1.1.48 1.48.66.39.18 1.3.62 2.03.99.73.36 1.69.86 2.13 1.11.45.24 1.11.62 1.48.83l.68.4c.05-19.65.07-37.78.07-52.96 0-15.19-.01-27.61-.03-27.61-.02.01-3.81 2.45-8.43 5.43Zm-20.06-1.82-4.05 2.56c-.02 6.26-.01 8.08.01 8.08s1.85-1.2 4.07-2.66c2.21-1.47 4.03-2.69 4.04-2.72.01-.03.01-1.8 0-3.94l-.01-3.88-4.06 2.56Zm-13.57 23.57c-4.54 2.93-8.33 5.38-8.41 5.44l-.14.1.03 34.61c1.37.47 2.14.73 2.6.87.45.14 1.3.38 1.87.54.57.15 1.49.39 2.04.52s1.52.34 2.16.46c.63.13 1.66.32 2.27.42.62.1 1.63.25 2.26.34.63.08 1.58.2 2.11.26.53.06 1.1.12 1.26.13l.3.03c0-38.02-.02-49.05-.04-49.05s-3.76 2.4-8.31 5.33ZM12.01 154.8c-1.64 1.06-2.99 1.94-3 1.96-.01.02.16.36.37.74.21.39.56 1.01.79 1.38.22.37.69 1.12 1.05 1.67.36.54.94 1.36 1.28 1.82.35.46.8 1.04 1.01 1.3.21.25.65.76.97 1.13.31.36.59.65.61.63.02-.01.04-2.84.04-6.29 0-4.98-.01-6.27-.06-6.26-.04 0-1.41.86-3.06 1.92Z" class="shp2"/></svg>